<svg width="100" height="100" viewBox="0 0 100 100" fill="none" xmlns="http://www.w3.org/2000/svg">
<path d="M49.9987 79.9997C39.582 79.9997 30.3737 74.6663 24.9987 66.6663C25.1237 58.333 41.6654 53.7497 49.9987 53.7497C58.332 53.7497 74.8737 58.333 74.9987 66.6663C72.2446 70.7686 68.5238 74.1304 64.1641 76.4556C59.8044 78.7807 54.9397 79.9979 49.9987 79.9997ZM49.9987 20.833C53.3139 20.833 56.4933 22.15 58.8375 24.4942C61.1817 26.8384 62.4987 30.0178 62.4987 33.333C62.4987 36.6482 61.1817 39.8276 58.8375 42.1718C56.4933 44.5161 53.3139 45.833 49.9987 45.833C46.6835 45.833 43.5041 44.5161 41.1599 42.1718C38.8157 39.8276 37.4987 36.6482 37.4987 33.333C37.4987 30.0178 38.8157 26.8384 41.1599 24.4942C43.5041 22.15 46.6835 20.833 49.9987 20.833ZM49.9987 8.33301C44.527 8.33301 39.1088 9.41075 34.0536 11.5047C28.9983 13.5986 24.405 16.6678 20.5359 20.5369C12.7219 28.3509 8.33203 38.949 8.33203 49.9997C8.33203 61.0504 12.7219 71.6484 20.5359 79.4625C24.405 83.3316 28.9983 86.4007 34.0536 88.4947C39.1088 90.5886 44.527 91.6663 49.9987 91.6664C61.0494 91.6663 71.6475 87.2765 79.4615 79.4625C87.2755 71.6484 91.6654 61.0504 91.6654 49.9997C91.6654 26.958 72.9154 8.33301 49.9987 8.33301Z" fill="#001C4B"/>
</svg>
