<svg width="23" height="19" viewBox="0 0 23 19" fill="none" xmlns="http://www.w3.org/2000/svg">
<path d="M14.9977 13.8474V2.21429C14.9977 1.75963 14.8171 1.32359 14.4956 1.0021C14.1741 0.680612 13.7381 0.5 13.2834 0.5H2.21429C1.75963 0.5 1.32359 0.680612 1.0021 1.0021C0.680612 1.32359 0.5 1.75963 0.5 2.21429V13.5731C0.5 14.0278 0.680612 14.4638 1.0021 14.7853C1.32359 15.1068 1.75963 15.2874 2.21429 15.2874H3.5M22.0931 8.61371H14.9994M19.7857 14.9669H20.3771C20.8318 14.9669 21.2678 14.7862 21.5893 14.4648C21.9108 14.1433 22.0914 13.7072 22.0914 13.2526V8.10971L19.7034 3.21886C19.5623 2.93086 19.3432 2.68822 19.0711 2.51852C18.799 2.34882 18.4847 2.25886 18.164 2.25886H15.3063" stroke="white" stroke-linecap="round" stroke-linejoin="round"/>
<path d="M14.0002 15.287H8.96537M3.58594 15.3385C3.58594 15.9732 3.83807 16.5819 4.28687 17.0307C4.73567 17.4795 5.34438 17.7316 5.97908 17.7316C6.61378 17.7316 7.22249 17.4795 7.67129 17.0307C8.12009 16.5819 8.37222 15.9732 8.37222 15.3385C8.37222 14.7038 8.12009 14.095 7.67129 13.6462C7.22249 13.1974 6.61378 12.9453 5.97908 12.9453C5.34438 12.9453 4.73567 13.1974 4.28687 13.6462C3.83807 14.095 3.58594 14.7038 3.58594 15.3385ZM14.4494 15.3385C14.4494 15.6527 14.5113 15.9639 14.6315 16.2543C14.7518 16.5446 14.9281 16.8084 15.1503 17.0307C15.3725 17.2529 15.6363 17.4292 15.9267 17.5494C16.217 17.6697 16.5282 17.7316 16.8425 17.7316C17.1568 17.7316 17.468 17.6697 17.7583 17.5494C18.0487 17.4292 18.3125 17.2529 18.5347 17.0307C18.7569 16.8084 18.9332 16.5446 19.0535 16.2543C19.1738 15.9639 19.2357 15.6527 19.2357 15.3385C19.2357 15.0242 19.1738 14.713 19.0535 14.4226C18.9332 14.1323 18.7569 13.8685 18.5347 13.6462C18.3125 13.424 18.0487 13.2477 17.7583 13.1275C17.468 13.0072 17.1568 12.9453 16.8425 12.9453C16.5282 12.9453 16.217 13.0072 15.9267 13.1275C15.6363 13.2477 15.3725 13.424 15.1503 13.6462C14.9281 13.8685 14.7518 14.1323 14.6315 14.4226C14.5113 14.713 14.4494 15.0242 14.4494 15.3385Z" stroke="white" stroke-linecap="round" stroke-linejoin="round"/>
</svg>
