<svg width="24" height="24" viewBox="0 0 24 24" fill="none" xmlns="http://www.w3.org/2000/svg">
<path d="M4 12.5996C4 11.4996 4.20433 10.479 4.613 9.53762C5.02167 8.59628 5.60067 7.76695 6.35 7.04962L10.95 2.52462C11.1 2.39128 11.2667 2.28728 11.45 2.21262C11.6333 2.13795 11.8167 2.10028 12 2.09962C12.1833 2.09895 12.3667 2.13662 12.55 2.21262C12.7333 2.28862 12.9 2.39262 13.05 2.52462L17.65 7.04962C18.1333 7.53295 18.5543 8.06628 18.913 8.64962C19.2717 9.23295 19.5423 9.85795 19.725 10.5246C19.7917 10.758 19.746 10.9623 19.588 11.1376C19.43 11.313 19.234 11.4253 19 11.4746C18.766 11.524 18.516 11.4783 18.25 11.3376C17.984 11.197 17.7757 10.9343 17.625 10.5496C17.4743 10.165 17.287 9.79828 17.063 9.44962C16.839 9.10095 16.568 8.78428 16.25 8.49962L12 4.29962L7.75 8.49962C7.16667 9.04962 6.72933 9.67062 6.438 10.3626C6.14667 11.0546 6.00067 11.8003 6 12.5996C6 13.8663 6.37933 15.008 7.138 16.0246C7.89667 17.0413 8.859 17.758 10.025 18.1746C10.4083 18.308 10.6667 18.508 10.8 18.7746C10.9333 19.0413 10.9833 19.2913 10.95 19.5246C10.9167 19.758 10.8127 19.954 10.638 20.1126C10.4633 20.2713 10.259 20.317 10.025 20.2496C8.275 19.7996 6.83333 18.8706 5.7 17.4626C4.56667 16.0546 4 14.4336 4 12.5996ZM17.375 15.4996C17.075 15.3663 16.7707 15.2496 16.462 15.1496C16.1533 15.0496 15.8327 14.9996 15.5 14.9996C15.2333 14.9996 14.975 15.029 14.725 15.0876C14.475 15.1463 14.2333 15.2253 14 15.3246C13.8167 15.408 13.625 15.4163 13.425 15.3496C13.225 15.283 13.0833 15.158 13 14.9746C12.9167 14.7746 12.9167 14.5746 13 14.3746C13.0833 14.1746 13.225 14.033 13.425 13.9496C13.7583 13.8163 14.1 13.708 14.45 13.6246C14.8 13.5413 15.15 13.4996 15.5 13.4996C15.8833 13.4996 16.2627 13.5456 16.638 13.6376C17.0133 13.7296 17.3757 13.842 17.725 13.9746C18.025 14.108 18.3293 14.2246 18.638 14.3246C18.9467 14.4246 19.2673 14.4746 19.6 14.4746C19.8667 14.4746 20.125 14.4456 20.375 14.3876C20.625 14.3296 20.8667 14.2503 21.1 14.1496C21.2833 14.0663 21.475 14.058 21.675 14.1246C21.875 14.1913 22.0167 14.3163 22.1 14.4996C22.1833 14.6996 22.1833 14.8996 22.1 15.0996C22.0167 15.2996 21.875 15.4413 21.675 15.5246C21.3417 15.658 21 15.7663 20.65 15.8496C20.3 15.933 19.95 15.9746 19.6 15.9746C19.2167 15.9746 18.8377 15.929 18.463 15.8376C18.0883 15.7463 17.7257 15.6336 17.375 15.4996ZM17.375 18.4996C17.075 18.3663 16.7707 18.2496 16.462 18.1496C16.1533 18.0496 15.8327 17.9996 15.5 17.9996C15.2333 17.9996 14.975 18.029 14.725 18.0876C14.475 18.1463 14.2333 18.2253 14 18.3246C13.8167 18.408 13.625 18.4163 13.425 18.3496C13.225 18.283 13.0833 18.158 13 17.9746C12.9167 17.7746 12.9167 17.5746 13 17.3746C13.0833 17.1746 13.225 17.033 13.425 16.9496C13.7583 16.8163 14.1 16.708 14.45 16.6246C14.8 16.5413 15.15 16.4996 15.5 16.4996C15.8833 16.4996 16.2627 16.5453 16.638 16.6366C17.0133 16.728 17.3757 16.8406 17.725 16.9746C18.025 17.108 18.3293 17.2246 18.638 17.3246C18.9467 17.4246 19.2673 17.4746 19.6 17.4746C19.8667 17.4746 20.125 17.4453 20.375 17.3866C20.625 17.328 20.8667 17.249 21.1 17.1496C21.2833 17.0663 21.475 17.058 21.675 17.1246C21.875 17.1913 22.0167 17.3163 22.1 17.4996C22.1833 17.6996 22.1833 17.8996 22.1 18.0996C22.0167 18.2996 21.875 18.4413 21.675 18.5246C21.3417 18.658 21 18.7663 20.65 18.8496C20.3 18.933 19.95 18.9746 19.6 18.9746C19.2167 18.9746 18.8377 18.929 18.463 18.8376C18.0883 18.7463 17.7257 18.6336 17.375 18.4996ZM17.375 21.4996C17.075 21.3663 16.7707 21.2496 16.462 21.1496C16.1533 21.0496 15.8327 20.9996 15.5 20.9996C15.2333 20.9996 14.975 21.029 14.725 21.0876C14.475 21.1463 14.2333 21.2253 14 21.3246C13.8167 21.408 13.625 21.4163 13.425 21.3496C13.225 21.283 13.0833 21.158 13 20.9746C12.9167 20.7746 12.9167 20.5746 13 20.3746C13.0833 20.1746 13.225 20.033 13.425 19.9496C13.7583 19.8163 14.1 19.708 14.45 19.6246C14.8 19.5413 15.15 19.4996 15.5 19.4996C15.8833 19.4996 16.2627 19.5453 16.638 19.6366C17.0133 19.728 17.3757 19.8406 17.725 19.9746C18.025 20.108 18.3293 20.2246 18.638 20.3246C18.9467 20.4246 19.2673 20.4746 19.6 20.4746C19.8667 20.4746 20.125 20.4453 20.375 20.3866C20.625 20.328 20.8667 20.249 21.1 20.1496C21.2833 20.0663 21.475 20.058 21.675 20.1246C21.875 20.1913 22.0167 20.3163 22.1 20.4996C22.1833 20.6996 22.1833 20.8996 22.1 21.0996C22.0167 21.2996 21.875 21.4413 21.675 21.5246C21.3417 21.658 21 21.7663 20.65 21.8496C20.3 21.933 19.95 21.9746 19.6 21.9746C19.2167 21.9746 18.8377 21.929 18.463 21.8376C18.0883 21.7463 17.7257 21.6336 17.375 21.4996Z" fill="white"/>
</svg>
