<svg width="22" height="22" viewBox="0 0 22 22" fill="none" xmlns="http://www.w3.org/2000/svg">
<path d="M20.734 8.75C20.697 7.439 20.573 6.603 20.153 5.89C19.555 4.875 18.479 4.31 16.328 3.182L14.328 2.132C12.572 1.211 11.694 0.75 10.75 0.75C9.806 0.75 8.928 1.21 7.172 2.132L5.172 3.182C3.021 4.31 1.945 4.875 1.347 5.89C0.75 6.904 0.75 8.167 0.75 10.692V10.809C0.75 13.333 0.75 14.596 1.347 15.61C1.945 16.625 3.021 17.19 5.172 18.319L7.172 19.368C8.928 20.289 9.806 20.75 10.75 20.75C11.694 20.75 12.572 20.29 14.328 19.368L16.328 18.318C18.479 17.189 19.555 16.625 20.153 15.61C20.573 14.897 20.697 14.061 20.734 12.75M19.75 6.25L15.75 8.25M15.75 8.25L15.25 8.5L10.75 10.75M15.75 8.25V11.75M15.75 8.25L6.25 3.25M10.75 10.75L1.75 6.25M10.75 10.75V20.25" stroke="#555555" stroke-width="1.5" stroke-linecap="round"/>
</svg>
