<svg width="60" height="60" viewBox="0 0 60 60" fill="none" xmlns="http://www.w3.org/2000/svg">
<rect width="60" height="60" rx="10" fill="#465FC3"/>
<path d="M20.0136 28.2058L17.3203 23.5551L24.275 19.5645H25.1283C25.5016 20.6827 26.0994 21.5907 26.9216 22.2885C27.7439 22.9853 28.7701 23.3338 30.0003 23.3338C31.2305 23.3338 32.2572 22.9853 33.0803 22.2885C33.9016 21.5907 34.499 20.6827 34.8723 19.5645H35.7256L42.6456 23.5885L39.9883 28.2058L36.667 26.3778V35.7511L35.7723 36.5338C35.7225 36.5782 35.659 36.6209 35.5816 36.6618C35.5052 36.7027 35.4225 36.7369 35.3336 36.7645V24.1005L39.5003 26.4005L40.8336 24.0671L35.7336 21.1005C35.2003 22.1893 34.4212 23.056 33.3963 23.7005C32.3714 24.3449 31.2394 24.6671 30.0003 24.6671C28.7612 24.6671 27.6292 24.3449 26.6043 23.7005C25.5794 23.056 24.8003 22.1893 24.267 21.1005L19.1336 24.0671L20.5003 26.4005L24.667 24.1005V31.5138C24.4394 31.5405 24.2145 31.5653 23.9923 31.5885C23.7701 31.6116 23.5505 31.6609 23.3336 31.7365V26.3765L20.0136 28.2058ZM20.2776 38.2445L19.415 37.2365L21.803 35.2058C22.2625 34.8129 22.7861 34.5125 23.3736 34.3045C23.9612 34.0965 24.559 33.9925 25.167 33.9925C25.775 33.9925 26.3674 34.0965 26.9443 34.3045C27.5212 34.5125 28.039 34.8129 28.4976 35.2058L32.3643 38.5058C32.6994 38.7965 33.0888 39.0116 33.5323 39.1511C33.9759 39.2907 34.4208 39.36 34.867 39.3591C35.3185 39.3591 35.759 39.2911 36.1883 39.1551C36.6185 39.0182 37.0012 38.8018 37.3363 38.5058L39.723 36.4418L40.5843 37.4818L38.1976 39.5138C37.7381 39.9067 37.2203 40.2013 36.6443 40.3978C36.0674 40.5942 35.475 40.6925 34.867 40.6925C34.259 40.6925 33.6612 40.5942 33.0736 40.3978C32.487 40.2013 31.9634 39.9067 31.503 39.5138L27.6363 36.2138C27.3012 35.9231 26.919 35.708 26.4896 35.5685C26.0594 35.4289 25.6185 35.3591 25.167 35.3591C24.7208 35.3591 24.2759 35.4289 23.8323 35.5685C23.3888 35.708 22.9994 35.9231 22.6643 36.2138L20.2776 38.2445Z" fill="white"/>
</svg>
