<svg width="17" height="17" viewBox="0 0 17 17" fill="none" xmlns="http://www.w3.org/2000/svg">
<path d="M2.83594 7.79102V13.4577C2.83594 13.8334 2.98519 14.1937 3.25087 14.4594C3.51655 14.7251 3.87688 14.8743 4.2526 14.8743H12.7526C13.1283 14.8743 13.4887 14.7251 13.7543 14.4594C14.02 14.1937 14.1693 13.8334 14.1693 13.4577V7.79102" stroke="#555555" stroke-linecap="round" stroke-linejoin="round"/>
<path d="M8.5 3.89518C8.5 3.23767 8.2388 2.60708 7.77387 2.14215C7.30893 1.67721 6.67835 1.41602 6.02083 1.41602C5.55118 1.41602 5.10076 1.60259 4.76867 1.93468C4.43657 2.26678 4.25 2.71719 4.25 3.18685C4.25 3.6565 4.43657 4.10692 4.76867 4.43902C5.10076 4.77111 5.55118 4.95768 6.02083 4.95768H8.5M8.5 3.89518V4.95768M8.5 3.89518C8.5 3.23767 8.7612 2.60708 9.22613 2.14215C9.69107 1.67721 10.3217 1.41602 10.9792 1.41602C11.4488 1.41602 11.8992 1.60259 12.2313 1.93468C12.5634 2.26678 12.75 2.71719 12.75 3.18685C12.75 3.4194 12.7042 3.64967 12.6152 3.86452C12.5262 4.07936 12.3958 4.27458 12.2313 4.43902C12.0669 4.60345 11.8717 4.73389 11.6568 4.82289C11.442 4.91188 11.2117 4.95768 10.9792 4.95768H8.5" stroke="#555555" stroke-linejoin="round"/>
<path d="M8.5 7.79036V14.8737M2.125 4.95703H14.875V7.79036H2.125V4.95703Z" stroke="#555555" stroke-linecap="round" stroke-linejoin="round"/>
</svg>
