<svg width="32" height="32" viewBox="0 0 32 32" fill="none" xmlns="http://www.w3.org/2000/svg">
<path d="M26 23.3333C26 24.2174 25.6488 25.0652 25.0237 25.6904C24.3986 26.3155 23.5507 26.6667 22.6667 26.6667C21.7826 26.6667 20.9348 26.3155 20.3096 25.6904C19.6845 25.0652 19.3333 24.2174 19.3333 23.3333C19.3333 22.4493 19.6845 21.6014 20.3096 20.9763C20.9348 20.3512 21.7826 20 22.6667 20C23.5507 20 24.3986 20.3512 25.0237 20.9763C25.6488 21.6014 26 22.4493 26 23.3333ZM12.6667 23.3333C12.6667 24.2174 12.3155 25.0652 11.6904 25.6904C11.0652 26.3155 10.2174 26.6667 9.33333 26.6667C8.44928 26.6667 7.60143 26.3155 6.97631 25.6904C6.35119 25.0652 6 24.2174 6 23.3333C6 22.4493 6.35119 21.6014 6.97631 20.9763C7.60143 20.3512 8.44928 20 9.33333 20C10.2174 20 11.0652 20.3512 11.6904 20.9763C12.3155 21.6014 12.6667 22.4493 12.6667 23.3333Z" stroke="#2375FF" stroke-width="1.5"/>
<path d="M19.3346 23.334H12.668M2.66797 5.33398H16.0013C17.8866 5.33398 18.8293 5.33398 19.4146 5.92065C20.0013 6.50465 20.0013 7.44732 20.0013 9.33398V20.6673M20.668 8.66732H23.0693C24.176 8.66732 24.7293 8.66732 25.188 8.92732C25.6466 9.18598 25.9306 9.66065 26.5 10.61L28.7653 14.3833C29.048 14.8553 29.1893 15.0927 29.2626 15.354C29.3346 15.6167 29.3346 15.8913 29.3346 16.442V20.0007C29.3346 21.2473 29.3346 21.87 29.0666 22.334C28.8911 22.638 28.6386 22.8905 28.3346 23.066C27.8706 23.334 27.248 23.334 26.0013 23.334M2.66797 17.334V20.0007C2.66797 21.2473 2.66797 21.87 2.93597 22.334C3.1115 22.638 3.36396 22.8905 3.66797 23.066C4.13197 23.334 4.75464 23.334 6.0013 23.334M2.66797 9.33398H10.668M2.66797 13.334H8.0013" stroke="#2375FF" stroke-width="1.5" stroke-linecap="round" stroke-linejoin="round"/>
</svg>
