<svg width="29" height="24" viewBox="0 0 29 24" fill="none" xmlns="http://www.w3.org/2000/svg">
<path d="M6.5 14.6333V10.6333L4 12L0 5.06667L8.8 0H10.5C10.8556 1.06667 11.2778 2 11.7667 2.8C12.2556 3.6 13.1667 4 14.5 4C15.8333 4 16.7444 3.6 17.2333 2.8C17.7222 2 18.1444 1.06667 18.5 0H20.2L28.9667 5.1L25 12L22.5 10.6333V17.0333L20.4 18.8667C20.2444 19 20.0667 19.1058 19.8667 19.184C19.6667 19.2622 19.4667 19.3009 19.2667 19.3C19.1333 19.3 18.9778 19.2556 18.8 19.1667C18.6222 19.0778 18.4444 18.9667 18.2667 18.8333L14.7333 15.8C14.0222 15.1778 13.2222 14.7222 12.3333 14.4333C11.4444 14.1444 10.5444 14 9.63333 14C9.1 14 8.572 14.0502 8.04933 14.1507C7.52667 14.2511 7.01022 14.412 6.5 14.6333ZM4.7 21.8333L2.96667 19.8L5.86667 17.3333C6.37778 16.8889 6.96133 16.5498 7.61733 16.316C8.27333 16.0822 8.95644 15.9658 9.66667 15.9667C10.3769 15.9676 11.0547 16.0844 11.7 16.3173C12.3453 16.5502 12.9231 16.8889 13.4333 17.3333L17.3 20.6333C17.5667 20.8556 17.8836 21.028 18.2507 21.1507C18.6178 21.2733 18.9898 21.3342 19.3667 21.3333C19.7667 21.3333 20.1391 21.2778 20.484 21.1667C20.8289 21.0556 21.1342 20.8778 21.4 20.6333L24.3 18.1333L26.0333 20.2L23.1333 22.6667C22.6222 23.1111 22.0444 23.4444 21.4 23.6667C20.7556 23.8889 20.0778 24 19.3667 24C18.6556 24 17.9724 23.8889 17.3173 23.6667C16.6622 23.4444 16.0787 23.1111 15.5667 22.6667L11.7 19.3667C11.4333 19.1444 11.128 18.9724 10.784 18.8507C10.44 18.7289 10.0676 18.6676 9.66667 18.6667C9.28889 18.6667 8.91689 18.728 8.55067 18.8507C8.18444 18.9733 7.86756 19.1453 7.6 19.3667L4.7 21.8333Z" fill="white"/>
</svg>
